<?xml version="1.0" encoding="utf-8"?>
<!-- Generator: Adobe Illustrator 19.0.0, SVG Export Plug-In . SVG Version: 6.00 Build 0)  -->
<svg version="1.1" id="Layer_1" xmlns="http://www.w3.org/2000/svg" xmlns:xlink="http://www.w3.org/1999/xlink" x="0px" y="0px"
	 viewBox="-179 91 600 380" style="enable-background:new -179 91 600 380;" xml:space="preserve">
<style type="text/css">
	.st0{fill:#66CCCC;}
	.st1{fill:none;stroke:#333333;stroke-width:8;stroke-miterlimit:10;}
	.st2{fill:none;stroke:#666666;stroke-width:12;stroke-miterlimit:10;}
	.st3{fill:none;stroke:#666666;stroke-width:8;stroke-miterlimit:10;}
	.st4{fill:#333333;}
	.st5{fill:#666666;}
	.st6{fill:#999999;}
	.st7{fill:#FF9933;}
	.st8{fill:#FF3300;}
	.st9{fill:#FFFF66;}
	.st10{fill:#33CC33;}
	.st11{fill:#CCCCCC;}
</style>
<rect id="XMLID_11_" x="-2" y="145.8" class="st0" width="250" height="230"/>
<path id="XMLID_10_" class="st1" d="M283.8,114.7H153c-16.5,0-30,13.5-30,30V184c0,5.5,4.5,10,10,10h150.8c16.5,0,30-13.5,30-30
	v-19.3C313.8,128.2,300.3,114.7,283.8,114.7z"/>
<rect id="XMLID_1_" x="-7" y="140.7" class="st2" width="260" height="300"/>
<line id="XMLID_7_" class="st3" x1="-2" y1="194" x2="248" y2="194"/>
<rect id="XMLID_2_" x="-13" y="400.8" class="st4" width="272" height="46"/>
<rect id="XMLID_3_" x="-2" y="375.8" class="st5" width="250" height="25"/>
<polygon id="XMLID_4_" class="st6" points="157.7,375.8 88.3,375.8 83,365.8 163,365.8 "/>
<path id="XMLID_5_" class="st5" d="M190,365.8H56c-1.7,0-3-1.3-3-3l0,0c0-1.7,1.3-3,3-3h134c1.7,0,3,1.3,3,3l0,0
	C193,364.4,191.7,365.8,190,365.8z"/>
<polygon id="XMLID_6_" class="st7" points="103.2,360 83.2,324.5 103.2,289 143.2,289 163.2,324.5 143.2,360 "/>
<rect id="XMLID_8_" x="111" y="184.3" class="st5" width="24" height="28"/>
<path id="XMLID_9_" class="st5" d="M139,220.3h-32c-1.1,0-2-0.9-2-2v-4c0-1.1,0.9-2,2-2h32c1.1,0,2,0.9,2,2v4
	C141,219.4,140.1,220.3,139,220.3z"/>
<polygon id="XMLID_13_" class="st4" points="106.9,220 122.9,242.6 139.1,220 "/>
<circle id="XMLID_12_" class="st8" cx="132" cy="424" r="4"/>
<circle id="XMLID_14_" class="st9" cx="147" cy="424" r="4"/>
<circle id="XMLID_16_" class="st10" cx="162" cy="424" r="4"/>
<rect id="XMLID_15_" x="178" y="413.8" class="st6" width="64" height="20"/>
<rect id="XMLID_17_" x="180" y="416.8" class="st11" width="17.1" height="14"/>
<rect id="XMLID_19_" x="201.4" y="416.8" class="st11" width="17.1" height="14"/>
<rect id="XMLID_20_" x="222.9" y="416.8" class="st11" width="17.1" height="14"/>
</svg>
