<?xml version="1.0" encoding="utf-8"?>
<!-- Generator: Adobe Illustrator 19.0.0, SVG Export Plug-In . SVG Version: 6.00 Build 0)  -->
<svg version="1.1" id="Layer_1" xmlns="http://www.w3.org/2000/svg" xmlns:xlink="http://www.w3.org/1999/xlink" x="0px" y="0px"
	 viewBox="-29 10 900 540" style="enable-background:new -29 10 900 540;" xml:space="preserve">
<style type="text/css">
	.st0{fill:#FF6600;}
	.st1{fill:#333333;}
	.st2{fill:#E7E2E4;}
	.st3{fill:#747474;}
	.st4{fill:#CCCCCC;}
	.st5{fill:none;}
	.st6{fill:#666666;}
	.st7{fill:#666666;stroke:#333333;stroke-miterlimit:10;}
	.st8{fill:#666666;stroke:#333333;stroke-width:2;stroke-miterlimit:10;}
	.st9{fill:none;stroke:#333333;stroke-width:2;stroke-miterlimit:10;}
	.st10{fill:#66CCCC;stroke:#333333;stroke-width:3;stroke-miterlimit:10;}
	.st11{fill:#993333;stroke:#000000;stroke-width:2;stroke-miterlimit:10;}
	.st12{fill:#333333;stroke:#333333;stroke-width:2;stroke-miterlimit:10;}
</style>
<path class="st0" d="M843.4,426.1l-7.5,1.2l-0.5-14.8l7.5-1.2c0.6-0.1,1.2,1.1,1.2,2.7l0.3,9.1C844.5,424.6,844,426,843.4,426.1z"/>
<path class="st1" d="M437.6,92.2c3.1-14.9,6.2-29.8,9.3-44.7c4.4-9.5,13.7-15.7,24-16c11-0.3,21.1,6.1,25.7,16.3
	c3.7,14.8,7.3,29.6,11,44.4C484.3,92.2,460.9,92.2,437.6,92.2z"/>
<path class="st2" d="M837.4,407c2-0.3,3.9-0.6,5.9-0.8c-0.2-1.6-0.4-3.9-1-6.7c-0.8-3.9-1.2-5.8-2.3-7.7c-0.7-1.2-3-4.4-9.1-5.9
	c-1.3-2.3-2.5-4.6-3.7-7c-12.3-24.7-18-49.5-20-72c2.5-2.8,5-5.6,7.5-8.4c1.4-0.9,2.8-1.7,4.2-2.6c-2.8-6.3-5.6-12.7-8.3-19
	c0.6-1.1,1.1-2.2,1.7-3.3c0,0-0.8-9.9-6.3-16.7c-1.3-1.6-2.7-2.7-5.3-4.7c-8.2-6.2-13.6-8.2-18-11s-6.4-5.5-14.3-16.7
	c-14.8-20.8-19.4-27.6-24.3-34.3c-5.4-7.4-11.8-16.1-21.3-26.3c-14.9-16-28.4-25.8-33.3-29.3c-5.4-3.8-15.7-11-30-17.7
	c-17.8-8.3-32.9-11.2-63-17c-18.2-3.5-32.8-5.5-42-6.7c-21-2.6-37-3.5-47-4c-1.6-0.1-3.6-0.2-6.2-0.3c-18.2-0.8-32.5-0.7-37.5-0.7
	c-11.2,0.1-19.4,0.5-29,1c-7.4,0.4-13.7,0.7-22,1.3c-17.6,1.4-31,3.4-35.3,4c-12.9,1.9-21,3.1-31.7,6c-9,2.4-15,4.8-26.7,9.3
	c-10.3,4-25.7,10.1-45.3,20c-15.9,8-27.4,14.9-37,20.7c-7.4,4.4-18.5,11.2-32.7,21c-12.7,8.8-21.9,16-33.3,25
	c-7.4,5.8-13.2,10.3-21,17c-8.6,7.3-15.1,13.3-22.3,20c-7.2,6.6-13.1,12.2-17.3,16.3c-0.9,1-2.4,2.6-4.3,4.7c-0.2,0.2-2.9,3-4.7,3.2
	c-0.1,0-0.5,0-0.9,0.1c-0.5,0-1.2,0.1-1.9,0.1c-0.8,0-1.5,0.1-2.8,0.1c-1.2,0.1-4.1,0.2-7.7,1.3c-1.8,0.6-3.7,1.4-5.7,2.6
	c-5.4,3.2-9,7.4-13,11.7c-7.1,7.6-6.4,5.7-11.7,11.7c-2.8,3.1-5.9,7.2-12,15.3c-6,8-9.1,12.1-11.7,16c-2.7,4.2-5.8,8.8-9,15.3
	c-1.9,3.8-3.4,7.5-6.3,15c-2.9,7.4-4.4,11.1-6,16c-1.8,5.6-3.5,10.9-4.7,18c-0.6,3.4-0.4,3.5-1.3,14c-1.2,12.8-1.4,12.6-2,20.3
	c-0.4,5.8-0.8,12.4-0.7,20c0.1,5.9,0.4,10.4,1.7,15.7c1.6,6.6,3.5,9,4,9.7c2.1,2.6,4.5,4,9,6.7c3.1,1.8,5.7,3,7.4,3.8
	c3.6,1.6,6.7,2.6,8.6,3.2c0,0,0.8,0.2,1.5,0.5c7,2.1,15.1,3.2,15.1,3.2c7.8,1.1,4.5,1,20,3.4c20.8,3.2,23.6,2.9,25,1
	c1.8-2.3-0.2-4.7-1.3-13.3c-0.9-6.7-0.5-11.6,0.3-21.3c0.4-4.8,1.2-12.6,3.3-22c1.9-8.6,3.5-15.9,7.7-25c1.9-4.2,7.7-16.5,18.3-26.7
	c4.6-4.3,8.8-7.4,9.7-8c4.1-2.8,7.9-4.9,11-6.3c4.5-2.4,10.8-5.2,18.7-7.5c6.9-2,23.4-6.5,43.7-2.3c23.1,4.8,38,18.2,44,24.3
	c4.3,4.5,10,11.3,15,20.3c7.2,13,9.7,24.3,11,30.7c2,9.6,2.3,17,2.7,31.3c0.4,12.7,0.1,23.5-0.3,31.3c112.1,0.1,224.2,0.2,336.3,0.3
	c0-10.3,0.2-19,0.3-25.7c0.5-21.3,1.3-28.3,2.6-35c0.7-3.6,1.7-9.2,3.8-15.6c2.5-7.7,9.4-27.9,29-43.3c14.8-11.7,29.9-15.1,37-16.7
	c4.5-1,14.1-2.7,26.3-2c6,0.3,15.4,1,26.7,5.3c2.8,1.1,11,4.4,20,11.3c4.4,3.4,14.3,11.6,22.3,25.7c7.2,12.7,9.4,23.8,10.7,31
	c1.8,10.1,1.8,17.7,1.7,27.3c-0.1,12-1.2,22.9-2.7,32.3c11.6,1.8,19.5-1.3,23-3c12.2-5.9,17.4-17.5,21.7-27
	c3.8-8.3,5.4-15.8,6.2-20.9c-2,0.1-4,0.2-6,0.3C838,423.9,837.7,415.4,837.4,407z"/>
<path class="st3" d="M41.4,390.8c-0.5,0-3.2,0.2-5.3-1.7c-2.1-1.9-2.2-4.7-2.3-7.7c-0.1-3.1,0.4-5.5,1.3-9.3
	c1.8-7.1,3.6-12.3,4-13.3c1.8-5.1,3.4-8.9,4.7-11.7c1.1-2.4,2.6-6.1,5-10.7c3.4-6.7,6.1-10.8,6.7-11.7c2.8-4.3,4.6-6.3,6-7.7
	c1.2-1.2,3.4-3.2,6.7-4.7c2.5-1.1,4-1.2,5-1c0.6,0.1,2.3,0.4,3.3,1.7c0.8,1,1.1,2.4,0.3,7c-0.9,5.1-2,8.3-2,8.3
	c-1.7,5.1-3.9,9.8-4.3,10.7c-0.1,0.2,0.3-0.6-5,11.3c-4.6,10.2-4.3,9.4-5.7,12.7c-3.1,7.1-4.6,10.6-5,11.7c-0.7,1.7-1.8,4.4-3.7,7.7
	c-1.9,3.3-3.1,4.6-4.3,5.7C45.4,389.3,43.8,390.6,41.4,390.8z"/>
<circle class="st1" cx="187.3" cy="448.6" r="80"/>
<circle class="st1" cx="707.6" cy="448.6" r="80"/>
<circle class="st4" cx="187.3" cy="448.6" r="52.5"/>
<circle class="st4" cx="707.6" cy="448.6" r="52.5"/>
<g>
	<line class="st5" x1="107.3" y1="254.5" x2="627.3" y2="254.5"/>
	<g>
		<path class="st1" d="M107.3,256c17.3,0,34.6,0,51.9,0c41.5,0,83,0,124.5,0c50,0,100,0,150,0c43.2,0,86.4,0,129.6,0
			c14.3,0,28.5,0,42.8,0c6.6,0,13.7,0.7,20.4,0c0.3,0,0.6,0,0.9,0c1.9,0,1.9-3,0-3c-17.3,0-34.6,0-51.9,0c-41.5,0-83,0-124.5,0
			c-50,0-100,0-150,0c-43.2,0-86.4,0-129.6,0c-14.3,0-28.5,0-42.8,0c-6.6,0-13.7-0.7-20.4,0c-0.3,0-0.6,0-0.9,0
			C105.4,253,105.4,256,107.3,256L107.3,256z"/>
	</g>
</g>
<path class="st6" d="M366.1,110"/>
<path class="st7" d="M369.1,108.5"/>
<path class="st7" d="M373.1,108"/>
<path class="st8" d="M373.1,111.5c-4.9,1.2-9.9,2.4-14.8,3.6c-3.9,1.4-7.8,2.8-11.6,4.2c-8.9-3.1-17.8-6.1-26.7-9.2
	c-16.4,6.2-38.4,15.4-63.1,28.8c-35.3,19.1-59.6,37.6-77,51c-20.8,16-45.9,37.2-72.5,64.5c22.5,0,45,0,67.5,0
	c20.6-22.9,46.8-48.8,79.5-74.5c33-26,64.6-45.5,91.9-60.2L373.1,111.5z"/>
<path class="st9" d="M301.8,255.1c4.9-25.3,8.5-44.1,20.7-66.3c4.8-8.8,11.4-20.7,24.3-32.7c2.9-2.7,16.6-15.1,38.7-23.7
	c12.6-4.9,22.5-6.3,38-8.7c17-2.5,29.8-3,41.7-3.3c28.1-0.9,49,1,63.3,2.3c11,1,24.4,2.6,40.7,6.7c11.6,2.9,17.7,5.4,23.3,8.7
	c4.3,2.5,12.4,7.7,20,17c1.8,2.2,8.2,10.2,12.7,22.3c2.9,7.8,3.8,14.1,4.7,20c0.3,2.4,1.5,10.9,1,25c-0.4,12.7-1.9,22.7-3,29.7
	c-4.9,29.6-12.4,53.8-14.3,60c-7.6,24-15.2,40.8-21.7,55c-9,19.9-14.1,28.2-19.3,35.3c-9.7,13.3-18.8,21.2-21.7,23.7
	c-5.5,4.7-13.3,11.2-25,16.3c-3.1,1.4-11.5,4.9-30.7,7.7c-6.6,1-15.9,2.1-40,2.7c-11.9,0.3-26.1,0.2-54.7,0c0,0-14.1-0.1-33.7-1
	c-13-0.6-19.7-1.2-28-3.3c-9.2-2.4-15-3.9-21-8.7c-10.6-8.3-14.2-20.4-16.3-27.7c-1.3-4.3-1.9-8.6-3-17c-1.7-12.3-2.5-23-3-32.7
	c-0.4-7.4-1.1-21.3-0.7-38.7C295.2,310.4,295.9,286.1,301.8,255.1z"/>
<path class="st10" d="M568,253.5c1.1-5.8,2.5-13.4,3.7-22.5c1.1-8.4,1.8-14.2,2-22c0.2-11,0.3-16.5-2-23.5
	c-0.6-1.8-3.6-10.4-11.5-18.5c-4.2-4.3-11.4-10.1-27.5-15c-12.1-3.7-23.3-4.2-45.3-5.2c-20.8-0.9-40.6-0.6-59,3.5
	c-1,0.2-2.7,0.6-5,1.2c-10.6,2.9-21.8,6-34,14.7c-17.3,12.3-25.3,27.9-30,37.3c-10.1,20.2-12.2,39-12.5,50.9
	C420.5,254.1,494.2,253.8,568,253.5z"/>
<path class="st11" d="M661.3,120.4c-5.2,0.9-8.1,5.3-8.3,5.7c-1.4,2.2-1.8,4.5-2,6c-1.2,11.8,5,24,5,24c9.7,19,14.5,28.5,19.3,36
	c5.1,8,11.9,18.3,20.3,30.3c2.5,4,5.3,5.8,7,6.7c1.8,0.9,3.9,1.4,8,2.3c1.2,0.3,4,0.9,6.7,1.3c11.4,1.8,35.3,2.3,35.3,2.3
	c5.1,0.1,13.1,0.3,23,0.7c-13-19.4-24-34.7-32-45.5c-5.6-7.6-11-14.7-18.8-23.3c-6.6-7.3-12.6-13.2-17-17.3c-1.8-1.5-3.5-3-5.3-4.5
	c-2.6-2-5.2-4-7.8-6c-6-4.7-14.4-10.8-23.6-16.2C668.8,121.6,665.4,119.7,661.3,120.4z"/>
<path class="st8" d="M572.7,290.1h-230c-1.7,0-3-1.3-3-3v-1c0-1.7,1.3-3,3-3h230c1.7,0,3,1.3,3,3v1
	C575.7,288.8,574.3,290.1,572.7,290.1z"/>
<path class="st12" d="M9.6,376.2c-2.4,0-5.9-0.5-9-2.7c-0.9-0.6-1.9-1.4-2.7-2.7c-1.2-2.2-0.7-4.2,0.3-9.3c2-9.4,1.9-10.8,3.7-13
	c1.5-1.9,3.2-3,4.3-3.7c1.1-0.6,2.4-1.2,4-1.7c4.4-1.3,8.3-0.6,10.3,0C17,354.2,13.3,365.2,9.6,376.2z"/>
<path class="st12" d="M815.3,298.9c2.7,6.3,5.3,12.7,8,19c0.2,0.5,1,2.2,0.3,4.3c-0.5,1.7-1.6,2.6-2,3c-3.3,1.6-6.7,3.1-10,4.7
	c-1.2-7.2-2.2-13.3-3-18.3c-0.2-0.9-0.4-2.4,0-4.3C809.5,302.9,813.1,300.2,815.3,298.9z"/>
<path class="st0" d="M38.2,420.9c-0.6,6.1-3,11-5.4,11s-4-4.9-3.4-11s3-11,5.4-11S38.8,414.8,38.2,420.9z"/>
<line class="st9" x1="304.4" y1="420.5" x2="276.2" y2="421.2"/>
<path class="st9" d="M198.3,254.5c-10.1,12.5-21.1,27.9-31.5,46.5c-9.6,17.2-16.7,33.4-22,47.5c-0.2,1.1-0.4,3.1,0.3,5.6
	c0.6,1.9,1.5,3.2,2.2,3.9"/>
</svg>
