<?xml version="1.0" encoding="utf-8"?>
<!-- Generator: Adobe Illustrator 19.0.0, SVG Export Plug-In . SVG Version: 6.00 Build 0)  -->
<svg version="1.1" id="Layer_1" xmlns="http://www.w3.org/2000/svg" xmlns:xlink="http://www.w3.org/1999/xlink" x="0px" y="0px"
	 viewBox="-179 81 600 400" style="enable-background:new -179 81 600 400;" xml:space="preserve">
<style type="text/css">
	.st0{fill:none;stroke:#000000;stroke-width:2;stroke-miterlimit:10;}
	.st1{fill:#333333;stroke:#000000;stroke-width:2;stroke-miterlimit:10;}
	.st2{fill:#BDCCD4;stroke:#000000;stroke-width:2;stroke-miterlimit:10;}
	.st3{fill:#CCCCCC;stroke:#000000;stroke-width:2;stroke-miterlimit:10;}
	.st4{fill:#FFCC66;stroke:#000000;stroke-width:2;stroke-miterlimit:10;}
</style>
<line id="XMLID_1_" class="st0" x1="35.2" y1="295.8" x2="35.2" y2="393.8"/>
<line id="XMLID_3_" class="st0" x1="204.2" y1="295.8" x2="204.2" y2="393.8"/>
<rect id="XMLID_2_" x="20.9" y="265.8" class="st1" width="29.4" height="29.4"/>
<rect id="XMLID_5_" x="190.4" y="265.8" class="st1" width="29.4" height="29.4"/>
<polygon id="XMLID_8_" class="st1" points="11.5,235.8 -4,235.8 -4,266.4 240.9,266.4 240.9,235.8 "/>
<path id="XMLID_4_" class="st2" d="M205.3,235.8H33.9c0-47.8,38.3-85.7,85.7-85.7S205.3,188.1,205.3,235.8z"/>
<rect id="XMLID_6_" x="-113.2" y="243.2" class="st3" width="465.3" height="14.7"/>
<rect id="XMLID_7_" x="-140.6" y="235.6" class="st3" width="55.1" height="7.3"/>
<rect id="XMLID_9_" x="324.6" y="235.6" class="st3" width="55.1" height="7.3"/>
<path id="XMLID_10_" class="st3" d="M-122.4,234.6h-18.4v-11c0-4,3.3-7.3,7.3-7.3h3.7c4,0,7.3,3.3,7.3,7.3L-122.4,234.6
	L-122.4,234.6z"/>
<path id="XMLID_11_" class="st3" d="M379.8,234.6h-18.4v-11c0-4,3.3-7.3,7.3-7.3h3.7c4,0,7.3,3.3,7.3,7.3v11H379.8z"/>
<path id="XMLID_12_" class="st1" d="M36.1,411.9h-0.5c-2.7,0-4.9-2.2-4.9-4.9v-12.2H41V407C41,409.7,38.8,411.9,36.1,411.9z"/>
<path id="XMLID_14_" class="st1" d="M205,411.9h-0.5c-2.7,0-4.9-2.2-4.9-4.9v-12.2h10.3V407C209.9,409.7,207.7,411.9,205,411.9z"/>
<line id="XMLID_13_" class="st0" x1="-180.3" y1="216.2" x2="-82.3" y2="216.2"/>
<line id="XMLID_16_" class="st0" x1="321.6" y1="216.2" x2="419.6" y2="216.2"/>
<path id="XMLID_15_" class="st4" d="M180.8,312.1H58.4V306c0-3.4,2.7-6.1,6.1-6.1h110.2c3.4,0,6.1,2.7,6.1,6.1V312.1z"/>
<rect id="XMLID_17_" x="58.4" y="312.3" class="st4" width="122.4" height="56.3"/>
<polygon id="XMLID_20_" class="st1" points="143,266.4 143,310.5 94,310.5 94,266.4 85.3,266.4 85.3,309.3 85.3,352.1 151.5,352.1 
	151.5,309.3 151.5,266.4 "/>
</svg>
