<?xml version="1.0" encoding="utf-8"?>
<!-- Generator: Adobe Illustrator 19.0.0, SVG Export Plug-In . SVG Version: 6.00 Build 0)  -->
<svg version="1.1" id="Layer_1" xmlns="http://www.w3.org/2000/svg" xmlns:xlink="http://www.w3.org/1999/xlink" x="0px" y="0px"
	 viewBox="-249 101 460 360" style="enable-background:new -249 101 460 360;" xml:space="preserve">
<style type="text/css">
	.st0{fill:none;stroke:#FFFFFF;stroke-width:4;stroke-miterlimit:10;}
	.st1{fill:#CC6666;stroke:#FFFFFF;stroke-width:3;stroke-miterlimit:10;}
	.st2{fill:none;}
	.st3{fill:none;stroke:#FFFFFF;stroke-width:3;stroke-miterlimit:10;}
	.st4{fill:#FFFFFF;}
</style>
<line id="XMLID_5_" class="st0" x1="-185.4" y1="447.4" x2="169.5" y2="437.5"/>
<path id="XMLID_2_" class="st0" d="M-185.4,447.4c202.3,0,281.7-68,355-303.9"/>
<circle id="XMLID_14_" class="st1" cx="17.5" cy="400.5" r="4"/>
<circle id="XMLID_10_" class="st1" cx="-45.5" cy="429.5" r="4"/>
<circle id="XMLID_23_" class="st1" cx="-113.5" cy="443.5" r="4"/>
<circle id="XMLID_25_" class="st1" cx="-185.5" cy="446.5" r="4"/>
<circle id="XMLID_24_" class="st2" cx="17.5" cy="409.5" r="2.5"/>
<circle id="XMLID_26_" class="st1" cx="71.2" cy="351.8" r="4"/>
<circle id="XMLID_27_" class="st1" cx="111.5" cy="290.5" r="4"/>
<circle id="XMLID_28_" class="st1" cx="142.5" cy="221.5" r="4"/>
<circle id="XMLID_29_" class="st1" cx="169.5" cy="143.5" r="4"/>
<rect id="XMLID_13_" x="-189.5" y="443.5" class="st1" width="8" height="8"/>
<rect id="XMLID_30_" x="-138.8" y="441.9" class="st1" width="8" height="8"/>
<rect id="XMLID_31_" x="-88.8" y="440" class="st1" width="8" height="8"/>
<rect id="XMLID_32_" x="-38.8" y="438.9" class="st1" width="8" height="8"/>
<rect id="XMLID_33_" x="11.2" y="437.2" class="st1" width="8" height="8"/>
<rect id="XMLID_34_" x="61.2" y="436.5" class="st1" width="8" height="8"/>
<rect id="XMLID_35_" x="111.2" y="434.5" class="st1" width="8" height="8"/>
<rect id="XMLID_36_" x="165.5" y="432.5" class="st1" width="8" height="8"/>
<line id="XMLID_8_" class="st3" x1="-233.3" y1="426.8" x2="-221.3" y2="426.8"/>
<line id="XMLID_38_" class="st3" x1="-233.3" y1="400.2" x2="-221.3" y2="400.2"/>
<line id="XMLID_39_" class="st3" x1="-233.3" y1="373.5" x2="-221.3" y2="373.5"/>
<line id="XMLID_40_" class="st3" x1="-233.3" y1="345.8" x2="-221.3" y2="345.8"/>
<line id="XMLID_41_" class="st3" x1="-233.3" y1="319.5" x2="-221.3" y2="319.5"/>
<line id="XMLID_42_" class="st3" x1="-233.3" y1="292.2" x2="-221.3" y2="292.2"/>
<line id="XMLID_43_" class="st3" x1="-233.3" y1="265.2" x2="-221.3" y2="265.2"/>
<line id="XMLID_44_" class="st3" x1="-233.3" y1="238.2" x2="-221.3" y2="238.2"/>
<line id="XMLID_45_" class="st3" x1="-233.3" y1="211.2" x2="-221.3" y2="211.2"/>
<line id="XMLID_46_" class="st3" x1="-233.3" y1="184.2" x2="-221.3" y2="184.2"/>
<line id="XMLID_47_" class="st3" x1="-233.3" y1="157.8" x2="-221.3" y2="157.8"/>
<line id="XMLID_48_" class="st3" x1="-233.3" y1="130.5" x2="-221.3" y2="130.5"/>
<polygon id="XMLID_6_" class="st4" points="-218.8,455 -218.8,101 -224.8,101 -224.8,461 -224.7,461 -218.8,461 195.3,461 
	195.3,455 "/>
</svg>
