<?xml version="1.0" encoding="utf-8"?>
<!-- Generator: Adobe Illustrator 19.0.0, SVG Export Plug-In . SVG Version: 6.00 Build 0)  -->
<svg version="1.1" id="Layer_1" xmlns="http://www.w3.org/2000/svg" xmlns:xlink="http://www.w3.org/1999/xlink" x="0px" y="0px"
	 viewBox="60 -127 1240 815" style="enable-background:new 60 -127 1240 815;" xml:space="preserve">
<style type="text/css">
	.st0{fill:#333333;}
	.st1{fill:#66CCCC;stroke:#333333;stroke-width:30;stroke-miterlimit:10;}
	.st2{fill:#CCCCCC;}
	.st3{fill:#999999;}
	.st4{fill:#666666;}
	.st5{opacity:0.8;fill:#FF6633;enable-background:new    ;}
	.st6{fill:#66CCCC;stroke:#FFFFFF;stroke-width:3;stroke-miterlimit:10;}
	.st7{opacity:0.9;fill:#999999;enable-background:new    ;}
	.st8{fill:#66CCCC;stroke:#333333;stroke-width:9;stroke-miterlimit:10;}
	.st9{fill:#99FFFF;}
	.st10{fill:#66CCCC;}
	.st11{fill:#FF9966;stroke:#333333;stroke-width:7;stroke-miterlimit:10;}
	.st12{fill:none;stroke:#333333;stroke-width:5;stroke-miterlimit:10;}
	.st13{fill:#CCCCCC;stroke:#333333;stroke-width:7;stroke-miterlimit:10;}
	.st14{fill:#FFCC33;}
	.st15{fill:none;stroke:#FFCC33;stroke-width:5;stroke-miterlimit:10;}
	.st16{fill:none;stroke:#333333;stroke-width:3;stroke-miterlimit:10;}
	.st17{opacity:0.95;fill:#CCCCCC;enable-background:new    ;}
	.st18{fill:#333333;stroke:#999999;stroke-width:7;stroke-miterlimit:10;}
	.st19{fill:#CCFFFF;}
	.st20{fill:#FF9933;}
	.st21{fill:none;stroke:#FFFFFF;stroke-miterlimit:10;}
	.st22{fill:#FFFFFF;}
	.st23{font-family:'MyriadPro-Bold';}
	.st24{font-size:16.8192px;}
	.st25{opacity:0.9;fill:#66CCCC;stroke:#FF3333;stroke-width:7;stroke-miterlimit:10;enable-background:new    ;}
	.st26{fill:#FF3333;}
	.st27{opacity:0.9;fill:#CCCCCC;enable-background:new    ;}
	.st28{fill:#CC3333;}
	.st29{fill:none;stroke:#FFFFFF;stroke-width:2;stroke-miterlimit:10;}
</style>
<path id="XMLID_46_" class="st0" d="M187.9,230.5h-2.2c-0.8,0-1.5-0.7-1.5-1.5l0,0h5.2l0,0C189.4,229.9,188.7,230.5,187.9,230.5z"/>
<path id="XMLID_50_" class="st0" d="M248.4,230.5h-2.2c-0.8,0-1.5-0.7-1.5-1.5l0,0h5.2l0,0C249.9,229.9,249.2,230.5,248.4,230.5z"/>
<path id="XMLID_1_" class="st1" d="M942.7,644.7H408.5V358.8c0-8.3,6.7-15,15-15h504.1c8.3,0,15,6.7,15,15L942.7,644.7L942.7,644.7z
	"/>
<rect id="XMLID_2_" x="337" y="651.5" class="st2" width="677.1" height="12"/>
<path id="XMLID_6_" class="st3" d="M689.9,662.2h-13.6h-0.6h-8.4H337.1V662c14,6.5,25.7,10.8,35.1,13.6c8.5,2.5,24.4,6.9,45.6,9.2
	c7,0.8,13.2,1.1,18.2,1.2l0,0l237.2-0.9h5.3L917,686l0,0c4-0.2,10.4-0.5,17.5-1.2c21.2-2.3,36.2-6.6,44.7-9.2
	c9.4-2.8,21.9-7.1,34.9-13.6v0.2H689.9z"/>
<path id="XMLID_4_" class="st4" d="M625.3,657.2h93.3c3.1,0,5.7-4,6-6H619.3C619.5,654.2,622.1,657.2,625.3,657.2z"/>
<polygon id="XMLID_9_" class="st5" points="559.3,145.4 494.1,82 429,145.4 429.1,145.4 429.1,227.2 559.1,227.2 559.1,145.4 "/>
<path id="XMLID_3_" class="st4" d="M554.6,243.3H434c-2.8,0-5-2.2-5-5V227h130.6v11.3C559.6,241.1,557.4,243.3,554.6,243.3z"/>
<path id="XMLID_5_" class="st4" d="M512.7,162h-37.5c-1.7,0-3,1.3-3,3v62.3h43.5V165C515.7,163.3,514.4,162,512.7,162z"/>
<path id="XMLID_8_" class="st6" d="M458.9,190.1h-16.6c-1.7,0-3-1.3-3-3v-21.9c0-1.7,1.3-3,3-3h16.6c1.7,0,3,1.3,3,3v21.9
	C461.9,188.8,460.6,190.1,458.9,190.1z"/>
<path id="XMLID_11_" class="st6" d="M546,190.1h-16.6c-1.7,0-3-1.3-3-3v-21.9c0-1.7,1.3-3,3-3H546c1.7,0,3,1.3,3,3v21.9
	C549,188.8,547.7,190.1,546,190.1z"/>
<circle id="XMLID_10_" class="st6" cx="494.3" cy="137" r="10.9"/>
<rect id="XMLID_13_" x="436.1" y="89.2" class="st7" width="17" height="36"/>
<path id="XMLID_15_" class="st4" d="M577.5,146.1l-80.1-80.1c-0.9-0.9-2-1.3-3.1-1.3s-2.3,0.4-3.2,1.3l-80,80.1
	c-1.7,1.7-1.7,4.5,0,6.2l3.7,3.7c1.7,1.7,4.5,1.7,6.2,0l73.3-73.4l73.4,73.3c1.7,1.7,4.5,1.7,6.2,0l3.7-3.7
	C579.2,150.6,579.2,147.8,577.5,146.1z"/>
<rect id="XMLID_7_" x="430.7" y="82" class="st2" width="27.9" height="7"/>
<path id="XMLID_12_" class="st8" d="M874.5,272.8h-76c-2.8,0-5-2.2-5-5v-158c0-2.8,2.2-5,5-5h76c2.8,0,5,2.2,5,5v158.1
	C879.5,270.5,877.3,272.8,874.5,272.8z"/>
<rect id="XMLID_14_" x="796" y="103.1" class="st0" width="81.9" height="22.9"/>
<rect id="XMLID_17_" x="796" y="249" class="st0" width="81.9" height="24.6"/>
<path id="XMLID_16_" class="st2" d="M847.3,114.5h-20.7c-1.5,0-2.7-1.2-2.7-2.7l0,0c0-1.5,1.2-2.7,2.7-2.7h20.7
	c1.5,0,2.7,1.2,2.7,2.7l0,0C850,113.3,848.8,114.5,847.3,114.5z"/>
<circle id="XMLID_18_" class="st2" cx="836.6" cy="260.9" r="7.4"/>
<path id="XMLID_19_" class="st9" d="M726.4-89.8c-4.3-20-22.1-35.1-43.4-35.1c-17.7,0-32.9,10.3-40.1,25.3c-2.4-0.5-4.9-0.7-7.5-0.7
	c-21.6,0-39.2,17.5-39.2,39.2c0,21,16.5,37.7,37.2,38.7c0.6,0.1,1.1-0.3,1.7-0.3h85.1c0.6,0,1.1,0.4,1.7,0.3c0.6,0,1.1,0.2,1.7,0.2
	c18.7,0,33.9-15.1,33.9-33.8C757.6-73.9,743.9-88.5,726.4-89.8z"/>
<path id="XMLID_24_" class="st10" d="M672.5-57.4c-3.1-14.5-15.9-25.3-31.3-25.3c-12.8,0-23.8,7.4-28.9,18.2
	c-1.7-0.3-3.5-0.5-5.4-0.5c-15.6,0-28.3,12.7-28.3,28.3c0,15.1,11.9,27.8,26.8,28.5c0.4,0.1,0.8,0.4,1.2,0.4H668
	c0.4,0,0.8-0.3,1.2-0.4c0.4,0,0.8-0.1,1.2-0.1c13.5,0,24.5-11,24.5-24.6C695.1-45.7,685.2-56.4,672.5-57.4z"/>
<polygon id="XMLID_60_" class="st11" points="1093.6,70 1035.6,70.2 1019.7,16.7 1109.5,16.7 "/>
<line id="XMLID_61_" class="st12" x1="1030.7" y1="55.7" x2="1037.3" y2="81.7"/>
<line id="XMLID_62_" class="st12" x1="1035.1" y1="82.7" x2="1092.1" y2="82.7"/>
<circle id="XMLID_63_" class="st13" cx="1040.1" cy="90.9" r="8.1"/>
<circle id="XMLID_65_" class="st13" cx="1090.9" cy="90.9" r="8.1"/>
<path id="XMLID_64_" class="st12" d="M1024.5,34.6c-2.7-9.1-5.9-16.6-6.8-19.9c-1-3.7-2.5-7.3-5.4-9.8c-4.4-3.7-5.2-2.3-15-2.2"/>
<ellipse id="XMLID_20_" class="st14" cx="246.7" cy="349.8" rx="19.7" ry="22.4"/>
<path id="XMLID_21_" class="st14" d="M255.2,378.6h-17.1c-0.1-1-0.3-2-0.5-3.2c-1-4.4-3.1-7.7-4.8-9.9c9.2,0,18.4,0,27.6,0
	c-1.7,2-3.9,5.3-4.9,9.9C255.4,376.6,255.2,377.6,255.2,378.6z"/>
<path id="XMLID_22_" class="st3" d="M253,391.9h-12.7c-1.7,0-3-1.3-3-3v-8.2c0-1.7,1.3-3,3-3H253c1.7,0,3,1.3,3,3v8.2
	C256,390.5,254.7,391.9,253,391.9z"/>
<polygon id="XMLID_23_" class="st4" points="252.4,395.9 241,395.9 239.4,391.9 254,391.9 "/>
<line id="XMLID_25_" class="st15" x1="222.1" y1="344.6" x2="199.1" y2="344.6"/>
<line id="XMLID_30_" class="st15" x1="293.1" y1="344.6" x2="272.1" y2="344.6"/>
<line id="XMLID_27_" class="st15" x1="225.8" y1="332.9" x2="206.3" y2="321.5"/>
<line id="XMLID_31_" class="st15" x1="268.5" y1="335" x2="288.8" y2="321.6"/>
<line id="XMLID_29_" class="st15" x1="234.8" y1="323.4" x2="223" y2="304.4"/>
<line id="XMLID_32_" class="st15" x1="260.2" y1="324.9" x2="272.4" y2="305.4"/>
<line id="XMLID_28_" class="st15" x1="246.7" y1="321.3" x2="246.6" y2="298.8"/>
<line id="XMLID_26_" class="st16" x1="1025.1" y1="29.7" x2="1104.1" y2="29.7"/>
<line id="XMLID_33_" class="st16" x1="1028.1" y1="42.7" x2="1102.1" y2="42.7"/>
<line id="XMLID_34_" class="st16" x1="1033.1" y1="55.7" x2="1096.1" y2="55.7"/>
<line id="XMLID_35_" class="st16" x1="1037.6" y1="16.2" x2="1037.6" y2="68.2"/>
<line id="XMLID_36_" class="st16" x1="1056.6" y1="17.2" x2="1056.6" y2="71.2"/>
<line id="XMLID_37_" class="st16" x1="1072.6" y1="16.2" x2="1072.6" y2="69.2"/>
<line id="XMLID_38_" class="st16" x1="1090.6" y1="18.2" x2="1090.6" y2="70.2"/>
<path id="XMLID_39_" class="st3" d="M253.8,166.1h-73.7v-14.2c0-2.8,2.2-5,5-5h63.7c2.8,0,5,2.2,5,5V166.1z"/>
<rect id="XMLID_40_" x="180" y="166.4" class="st17" width="73.7" height="62.7"/>
<circle id="XMLID_41_" class="st18" cx="216.6" cy="197.6" r="16.6"/>
<circle id="XMLID_42_" class="st0" cx="187.6" cy="156.2" r="3.3"/>
<circle id="XMLID_44_" class="st0" cx="246.6" cy="156.2" r="3.3"/>
<rect id="XMLID_43_" x="228" y="196.1" width="5.2" height="2.9"/>
<rect id="XMLID_45_" x="203.9" y="153.3" class="st19" width="5.7" height="5.7"/>
<rect id="XMLID_47_" x="213.5" y="153.3" class="st19" width="5.7" height="5.7"/>
<rect id="XMLID_48_" x="223.5" y="153.3" class="st19" width="5.7" height="5.7"/>
<circle id="XMLID_49_" class="st2" cx="246.5" cy="38.1" r="45.1"/>
<circle id="XMLID_51_" class="st0" cx="246.5" cy="38.1" r="39"/>
<circle id="XMLID_52_" class="st20" cx="246.5" cy="38.1" r="27"/>
<line id="XMLID_53_" class="st21" x1="238.6" y1="13.7" x2="241.6" y2="23.3"/>
<text id="XMLID_55_" transform="matrix(1 0 0 1 237.4022 46.1041)" class="st22 st23 st24">68</text>
<path id="XMLID_58_" class="st25" d="M1161.2,178.3c-13.1-1.9-28.6-3.3-46-3.3c-17.1,0-32.3,1.4-45.2,3.3
	c-2.1,14.9-4.2,29.8-6.3,44.8h103.9L1161.2,178.3z"/>
<path id="XMLID_70_" class="st26" d="M1177.4,241c-0.5-3.6-0.8-5.8-3.3-11.2c-1.4-3.1-8.2-8.4-9.6-10.3h-48.9h-49.1
	c-1.4,1.9-8.3,7.2-9.7,10.3c-2.5,5.4-2.9,7.6-3.4,11.2c0,7.1,0,14-0.1,21c0,0.1,0.1,0.1,0.2,0.1h62h61.7c0.1,0,0.2,0,0.2-0.1
	C1177.4,254.9,1177.4,248.1,1177.4,241z"/>
<path id="XMLID_56_" class="st0" d="M1073.2,282h-14.8c-2.8,0-5-2.2-5-5v-13.6h24.8V277C1078.2,279.8,1075.9,282,1073.2,282z"/>
<path id="XMLID_67_" class="st0" d="M1172.5,282h-14.8c-2.8,0-5-2.2-5-5v-13.6h24.8V277C1177.5,279.8,1175.2,282,1172.5,282z"/>
<circle id="XMLID_59_" class="st27" cx="1071" cy="244.9" r="8.1"/>
<circle id="XMLID_69_" class="st27" cx="1159.4" cy="244.9" r="8.1"/>
<path id="XMLID_57_" class="st26" d="M1062.4,228.1l-10.3-5.7c-0.5-0.2-0.9-0.8-0.9-1.4v-2.5c0-3,2.4-5.5,5.4-5.5h7.8L1062.4,228.1z
	"/>
<path id="XMLID_68_" class="st26" d="M1168.8,228.1l10.3-5.7c0.5-0.2,0.9-0.8,0.9-1.4v-2.5c0-3-2.4-5.5-5.4-5.5h-7.8L1168.8,228.1z"
	/>
<path id="XMLID_66_" class="st28" d="M1127.1,253h-23.3c-1.6,0-3-1.1-3.3-2.7l-0.5-2.5c-0.4-2.1,1.2-4.1,3.3-4.1h24.3
	c2.1,0,3.8,1.9,3.3,4.1l-0.5,2.5C1130.1,251.8,1128.7,253,1127.1,253z"/>
<line id="XMLID_71_" class="st29" x1="836.1" y1="322.1" x2="836.1" y2="285.1"/>
<line id="XMLID_72_" class="st29" x1="676.1" y1="0.2" x2="676.1" y2="324.1"/>
<line id="XMLID_73_" class="st29" x1="776.1" y1="189.2" x2="576.1" y2="189.2"/>
<line id="XMLID_100_" class="st29" x1="894.1" y1="229.2" x2="1039.1" y2="229.2"/>
<line id="XMLID_101_" class="st29" x1="836.1" y1="51.2" x2="1003.1" y2="51.2"/>
<line id="XMLID_102_" class="st29" x1="836.1" y1="51.2" x2="836.1" y2="92.2"/>
<line id="XMLID_103_" class="st29" x1="416.1" y1="189.2" x2="266.1" y2="189.2"/>
<line id="XMLID_104_" class="st29" x1="335.1" y1="36.2" x2="335.1" y2="344.1"/>
<line id="XMLID_105_" class="st29" x1="336.1" y1="36.2" x2="302.1" y2="36.2"/>
<line id="XMLID_107_" class="st29" x1="336.1" y1="344.1" x2="302.1" y2="344.1"/>
<rect id="XMLID_120_" x="237" y="27" class="st22" width="19.2" height="3.6"/>
</svg>
